<?xml version="1.0" encoding="UTF-8"?>
<svg xmlns="http://www.w3.org/2000/svg" width="900" height="430" viewBox="0 0 900 430" role="img" aria-labelledby="title desc">
 <title id="title">例题 8.8 角平分线长度与最短边</title><desc id="desc">左侧为按题设比例绘制的示意图，右侧为简要推导思路。</desc>
 <defs><marker id="arr" markerWidth="9" markerHeight="9" refX="8" refY="4.5" orient="auto"><path d="M0 0 9 4.5 0 9Z" fill="#2878b8"/></marker><style>
 .sans{font-family:"Noto Sans SC","Microsoft YaHei",sans-serif}.math,.pt,.len{font-family:"Cambria Math","Times New Roman","Microsoft YaHei",serif}.edge{stroke:#17252f;stroke-width:2.6;fill:none;stroke-linecap:round}.aux{stroke:#0b9077;stroke-width:2.2;fill:none;stroke-dasharray:7 5}.accent{stroke:#2878b8;stroke-width:3;fill:none}.shape{fill:#eaf7f3;stroke:#17252f;stroke-width:2.5}.pt{font-size:19px;font-style:italic;fill:#17252f;paint-order:stroke;stroke:#fff;stroke-width:5px;stroke-linejoin:round}.len{font-size:16px;fill:#51656d;paint-order:stroke;stroke:#fff;stroke-width:5px}.small{font:15px "Noto Sans SC","Microsoft YaHei",sans-serif;fill:#65747d;paint-order:stroke;stroke:#fff;stroke-width:4px}.panel-title{font-size:21px;font-weight:700;fill:#17252f}.note{font-size:17px;fill:#536970}.formula{font:18px "Cambria Math","Times New Roman","Microsoft YaHei",serif;fill:#2878b8}.result{font-size:19px;font-weight:700;fill:#0b9077}.warn{font-size:18px;font-weight:700;fill:#e85d4a}
 </style></defs>
 <rect width="900" height="430" rx="20" fill="#f7faf9"/><rect x="20" y="20" width="860" height="390" rx="16" fill="#fff" stroke="#dce8e4"/>
 <g><polygon points="150,100 510,100 60,256" class="shape" /><line x1="150" y1="100" x2="210" y2="204" class="accent" /><circle cx="210" cy="204" r="5" fill="#e85d4a"/><text x="139" y="88" class="pt" >A</text><text x="518" y="105" class="pt" >B</text><text x="42" y="271" class="pt" >C</text><text x="219" y="202" class="pt" >D</text><text x="303" y="88" class="len" >AB=2x</text><text x="83" y="170" class="len" >AC=x</text><text x="335" y="189" class="len" >BC=y</text><text x="164" y="162" class="len" >kx</text></g><g class="sans"><rect x="545" y="55" width="315" height="320" rx="18" fill="#f1f6fa" stroke="#d7e3e8"/><text x="574" y="98" class="panel-title">角平分线长度与最短边</text><line x1="574" y1="119" x2="831" y2="119" stroke="#cedbe1"/><text x="574" y="157" class="note">角平分线：BD:DC=2:1</text><text x="574" y="205" class="formula">k²x² = 2x²−2y²/9</text><text x="574" y="253" class="formula">面积固定后 y²≥3</text><text x="574" y="301" class="result">k = 2√10/5 时 BC 最短</text></g>
</svg>